<svg xmlns="http://www.w3.org/2000/svg" viewBox="-229.1 317.2 436.1 390.7" enable-background="new -229.1 317.2 436.1 390.7"><path fill="#fff" d="M-11 373.5c-9.1-35.3-55.2-56.3-90.9-56.3-70.2 0-127.2 54.5-127.2 127.2 0 136.3 129.6 172.6 199.9 254.4.6.9 1.4 1.6 2.2 2.5 8.9 8.8 23.3 8.8 32.2 0 .8-.8 1.4-1.5 2-2.5 70.4-81.9 199.9-117.6 199.9-254.4 0-72.7-57-127.2-127.2-127.2-35.7 0-81.8 21-90.9 56.3zm96.8 25.4c-8.5-1.5-15-9-15-17.9 0-10 8.2-18.4 18.2-18.4 14.4 0 32 10.3 46.7 24.8 15 14.9 26 34.8 26 47.9 0 10-8.2 18.2-18.2 18.2-8.9 0-16.4-6.5-17.9-15-4.6-18.3-20.2-35-39.8-39.6z"/></svg>