<svg xmlns="http://www.w3.org/2000/svg" viewBox="-430 465.9 94 94.2" enable-background="new -430 465.9 94 94.2"><path d="M-386 537.4c-13.2-1.3-25.3-15.5-19.9-31.6.3-1 1.1-2.1 1.6-3.2.5-1 1.4-2.2 1.1-3h-26.6v44.2c.9 8.7 7.7 15.5 16.5 16.3h61c8.8-.9 15.4-8.3 16.3-16v-44.5h-26.8c10.4 17.2-1.6 39.9-23.2 37.8zM-383 531.9c8.4 0 18.7-6 18.6-18.6-.1-11.4-9.2-19.5-20.9-18.1-3.6.4-5.5 1.2-7.3 2.3-4.1 2.5-8 7.1-8.7 13.3-1.5 12.5 7.7 21.1 18.3 21.1zm-12.6-24.1c1.5-3.6 4.9-7.5 11.9-8 8.6-.6 16.7 7.1 14.2 17.2-1.5 6.3-8.6 11.1-15.8 10.1-7-1-14.4-9.6-10.3-19.3zM-341.3 471.2c-2.5-2.5-6.7-4.8-11.2-5.3h-52.3v23.8h-3.9v-23.8h-2.4v23.8h-3.9v-23.6c-.9.2-1.7.4-2.5.7v22.9h-3.9v-21.1c-1.2.8-2.3 1.6-3.2 2.5-5.2 5.2-5.6 14.1-5.3 25.4h29.1c1.2-.3 2.6-1.7 3.7-2.5 3.9-2.9 9-4.5 14.1-4.5h.1c5.1.1 10.2 1.6 14.1 4.5 1.1.8 2.5 2.2 3.7 2.5h29.1c.1-11.4-.1-20.2-5.3-25.3zm-4 15.4c0 1.3-1.1 2.4-2.4 2.4h-10.1c-1.3 0-2.4-1.1-2.4-2.4v-10.1c0-1.3 1.1-2.4 2.4-2.4h10.1c1.3 0 2.4 1.1 2.4 2.4v10.1z"/></svg>