<?xml version="1.0" encoding="utf-8"?>
<!-- Generator: Adobe Illustrator 19.0.0, SVG Export Plug-In . SVG Version: 6.00 Build 0)  -->
<!DOCTYPE svg PUBLIC "-//W3C//DTD SVG 1.1//EN" "http://www.w3.org/Graphics/SVG/1.1/DTD/svg11.dtd">
<svg version="1.1" id="Слой_1" xmlns="http://www.w3.org/2000/svg" xmlns:xlink="http://www.w3.org/1999/xlink" x="0px" y="0px"
	 viewBox="-255 257 512 512" style="enable-background:new -255 257 512 512;" xml:space="preserve">
<style type="text/css">
	.st0{fill:#D54A58;}
</style>
<path id="facebook_2_" class="st0" d="M201,763H50.5V583.4h59l0-70.2l-58.1,0.1v-41c0,0,0.3-19.4,22.1-19.4
	c21.8,0,56.9-0.3,56.9-0.3v-69.1c0,0-95.5,0-91,0c-63.8,0-68.4,75.2-68.4,75.2v54.6l-50.4,0l-0.2,69.9h50.6V763H-199
	c-27.6,0-50-22.4-50-50V313c0-27.6,22.4-50,50-50h400c27.6,0,50,22.4,50,50v400C251,740.6,228.6,763,201,763z"/>
</svg>
